<?xml version="1.0" encoding="UTF-8"?>
<svg xmlns="http://www.w3.org/2000/svg" xmlns:xlink="http://www.w3.org/1999/xlink" width="365pt" height="71.11pt" viewBox="0 0 365 71.11" version="1.1">
<defs>
<clipPath id="clip1">
  <path d="M 112 14 L 167 14 L 167 71.109375 L 112 71.109375 Z M 112 14 "/>
</clipPath>
<clipPath id="clip2">
  <path d="M 175 14 L 365 14 L 365 71.109375 L 175 71.109375 Z M 175 14 "/>
</clipPath>
</defs>
<g id="surface1">
<path style=" stroke:none;fill-rule:nonzero;fill:rgb(0.799561%,0.799561%,0.799561%);fill-opacity:1;" d="M 65.25 18.6875 C 66.804688 18.058594 68.394531 17.742188 70.023438 17.742188 C 72.445313 17.742188 74.324219 18.078125 75.664063 18.75 C 77 19.417969 77.976563 20.488281 78.59375 21.949219 C 79.242188 23.414063 79.632813 25.304688 79.757813 27.621094 C 79.886719 29.9375 79.949219 32.78125 79.949219 36.15625 L 79.949219 70.359375 L 99.53125 70.359375 L 99.53125 25.789063 C 99.53125 17.457031 97.824219 11.078125 94.410156 6.648438 C 91 2.214844 86.007813 0 79.433594 0 C 75.894531 0 72.285156 1.058594 68.601563 3.171875 C 64.917969 5.285156 61.128906 8.191406 57.230469 11.890625 C 55.496094 7.988281 53.09375 5.03125 50.023438 3.019531 C 46.957031 1.007813 43.417969 0 39.40625 0 C 35.6875 0 32.292969 0.835938 29.222656 2.5 C 26.152344 4.167969 22.941406 6.484375 19.582031 9.453125 L 19.582031 1.890625 L 0 1.890625 L 0 70.359375 L 19.582031 70.359375 L 19.582031 21.828125 C 21.027344 20.851563 22.652344 19.929688 24.460938 19.054688 C 26.269531 18.179688 28.132813 17.742188 30.046875 17.742188 C 32.433594 17.742188 34.289063 18.078125 35.609375 18.75 C 36.925781 19.417969 37.914063 20.488281 38.566406 21.949219 C 39.214844 23.414063 39.613281 25.3125 39.757813 27.648438 C 39.902344 29.988281 39.972656 32.824219 39.972656 36.15625 L 39.972656 70.359375 L 59.554688 70.359375 L 59.554688 21.828125 C 61.796875 20.363281 63.695313 19.320313 65.25 18.6875 "/>
<g clip-path="url(#clip1)" clip-rule="nonzero">
<path style=" stroke:none;fill-rule:nonzero;fill:rgb(94.898987%,41.19873%,12.89978%);fill-opacity:1;" d="M 144.300781 58.363281 C 142.523438 59.066406 140.777344 59.414063 139.050781 59.414063 C 136.878906 59.414063 135.277344 59.261719 134.257813 58.960938 C 133.234375 58.660156 132.355469 58.1875 131.621094 57.550781 C 130.855469 56.914063 130.375 56.246094 130.183594 55.546875 C 129.992188 54.84375 129.894531 53.9375 129.894531 52.820313 C 129.894531 51.132813 130.351563 49.769531 131.261719 48.738281 C 132.171875 47.703125 133.488281 46.914063 135.214844 46.371094 C 136.621094 45.925781 138.683594 45.535156 141.398438 45.199219 C 144.113281 44.867188 146.640625 44.605469 148.972656 44.410156 L 148.972656 55.59375 C 147.628906 56.738281 146.070313 57.664063 144.300781 58.363281 Z M 148.972656 69.671875 L 166.085938 69.671875 L 166.085938 33.050781 C 166.085938 26.597656 163.902344 21.859375 159.539063 18.839844 C 155.179688 15.820313 148.09375 14.3125 138.28125 14.3125 C 134.160156 14.3125 130.046875 14.640625 125.941406 15.292969 C 121.835938 15.949219 118.871094 16.515625 117.050781 16.996094 L 117.050781 29.984375 L 118.632813 29.984375 C 120.035156 29.441406 122.351563 28.667969 125.582031 27.660156 C 128.808594 26.652344 131.84375 26.148438 134.6875 26.148438 C 139.417969 26.148438 142.996094 26.71875 145.425781 27.851563 C 147.851563 28.988281 149.066406 31.039063 149.066406 34.011719 L 149.066406 34.296875 C 143.988281 34.585938 139.082031 35.035156 134.351563 35.640625 C 129.621094 36.25 125.660156 37.269531 122.464844 38.707031 C 119.238281 40.144531 116.746094 42.109375 114.988281 44.605469 C 113.230469 47.097656 112.351563 50.308594 112.351563 54.238281 C 112.351563 59.160156 114.078125 63.203125 117.527344 66.363281 C 120.980469 69.527344 125.261719 71.109375 130.375 71.109375 C 132.546875 71.109375 134.546875 70.925781 136.367188 70.558594 C 138.1875 70.191406 139.945313 69.625 141.640625 68.855469 C 142.851563 68.28125 144.148438 67.5 145.519531 66.507813 C 146.894531 65.519531 148.046875 64.671875 148.972656 63.96875 L 148.972656 69.671875 "/>
</g>
<g clip-path="url(#clip2)" clip-rule="nonzero">
<path style=" stroke:none;fill-rule:nonzero;fill:rgb(0.799561%,0.799561%,0.799561%);fill-opacity:1;" d="M 218.28125 15.84375 L 205.949219 52.894531 L 193.460938 15.84375 L 175.238281 15.84375 L 195.847656 69.671875 L 215.40625 69.671875 L 236.160156 15.84375 Z M 298.757813 39.90625 C 298.757813 31.597656 296.554688 25.230469 292.144531 20.804688 C 287.734375 16.378906 281.152344 14.167969 272.394531 14.167969 C 262.90625 14.167969 255.433594 16.765625 249.988281 21.957031 C 244.539063 27.148438 241.816406 34.1875 241.816406 43.070313 C 241.816406 52.050781 244.691406 58.96875 250.441406 63.824219 C 256.195313 68.683594 264.472656 71.109375 275.273438 71.109375 C 279.457031 71.109375 283.277344 70.757813 286.726563 70.054688 C 290.179688 69.351563 293.851563 68.21875 297.753906 66.652344 L 297.753906 52.800781 L 295.835938 52.800781 C 293.851563 54.304688 291.152344 55.707031 287.734375 57.019531 C 284.3125 58.328125 280.785156 58.984375 277.140625 58.984375 C 271.390625 58.984375 267.035156 57.867188 264.078125 55.628906 C 261.125 53.390625 259.519531 50.164063 259.261719 45.945313 L 298.757813 45.945313 Z M 259.214844 35.832031 C 259.46875 32.03125 260.667969 29.265625 262.808594 27.539063 C 264.949219 25.816406 267.683594 24.953125 271.007813 24.953125 C 274.585938 24.953125 277.21875 25.863281 278.914063 27.683594 C 280.609375 29.503906 281.503906 32.222656 281.597656 35.832031 Z M 365 34.632813 C 365 27.890625 363.363281 22.828125 360.09375 19.441406 C 356.820313 16.054688 352.28125 14.359375 346.472656 14.359375 C 343.027344 14.359375 339.890625 15 337.066406 16.277344 C 334.242188 17.554688 331.300781 19.390625 328.234375 21.789063 L 328.234375 15.84375 L 310.933594 15.84375 L 310.933594 69.671875 L 328.234375 69.671875 L 328.234375 31.519531 C 330.121094 30.398438 331.871094 29.585938 333.484375 29.074219 C 335.097656 28.5625 336.6875 28.308594 338.253906 28.308594 C 340.460938 28.308594 342.175781 28.578125 343.40625 29.121094 C 344.636719 29.664063 345.570313 30.527344 346.210938 31.710938 C 346.753906 32.734375 347.136719 34.324219 347.359375 36.480469 C 347.585938 38.636719 347.695313 40.800781 347.695313 42.972656 L 347.695313 69.671875 L 365 69.671875 L 365 34.632813 "/>
</g>
</g>
</svg>
